<?xml version="1.0" standalone="no"?>
<!DOCTYPE svg PUBLIC "-//W3C//DTD SVG 20010904//EN"
 "http://www.w3.org/TR/2001/REC-SVG-20010904/DTD/svg10.dtd">
<svg version="1.0" xmlns="http://www.w3.org/2000/svg"
 width="512.000000pt" height="512.000000pt" viewBox="0 0 512.000000 512.000000"
 preserveAspectRatio="xMidYMid meet">
<metadata>
Created by potrace 1.16, written by Peter Selinger 2001-2019
</metadata>
<g transform="translate(0.000000,512.000000) scale(0.100000,-0.100000)"
fill="#000000" stroke="none">
<path d="M4020 4881 c-7 -11 -24 -22 -37 -26 -13 -3 -23 -10 -23 -15 0 -6 -7
-10 -15 -10 -8 0 -15 -4 -15 -10 0 -5 -9 -10 -19 -10 -10 0 -21 -7 -25 -15 -3
-8 -15 -15 -26 -15 -11 0 -20 -4 -20 -10 0 -5 -15 -10 -34 -10 -42 0 -68 -9
-60 -21 3 -5 -18 -9 -45 -9 -28 0 -51 -4 -51 -10 0 -6 -32 -10 -75 -10 -43 0
-75 -4 -75 -10 0 -6 -45 -10 -114 -10 -86 0 -116 -3 -125 -14 -8 -9 -40 -16
-84 -20 -110 -7 -158 -17 -164 -32 -3 -9 -21 -14 -49 -14 -24 0 -44 -4 -44
-10 0 -5 -13 -10 -29 -10 -16 0 -34 -7 -41 -15 -7 -8 -23 -15 -36 -15 -13 0
-24 -4 -24 -10 0 -5 -9 -10 -19 -10 -11 0 -41 -11 -67 -25 -26 -14 -55 -25
-65 -25 -11 0 -19 -4 -19 -10 0 -5 -7 -10 -15 -10 -9 0 -26 -11 -39 -25 -13
-14 -27 -25 -32 -25 -11 0 -55 -33 -96 -72 -16 -16 -32 -28 -37 -28 -4 0 -18
-11 -31 -25 -13 -14 -27 -25 -32 -25 -12 0 -10 78 2 85 13 8 13 65 1 65 -5 0
-11 10 -13 23 -3 20 -9 22 -71 25 -59 3 -71 0 -101 -23 -18 -14 -38 -25 -45
-25 -6 0 -14 -7 -17 -15 -4 -8 -12 -15 -20 -15 -8 0 -14 -4 -14 -10 0 -5 -6
-10 -12 -10 -7 0 -31 -16 -53 -35 -22 -19 -43 -35 -47 -35 -5 0 -8 -7 -8 -15
0 -8 -9 -15 -20 -15 -11 0 -20 -4 -20 -10 0 -5 -7 -10 -15 -10 -8 0 -15 -7
-15 -15 0 -8 -4 -15 -10 -15 -13 0 -110 -97 -110 -110 0 -5 -5 -10 -11 -10
-14 0 -39 -25 -39 -39 0 -6 -5 -11 -11 -11 -12 0 -39 -25 -39 -37 0 -4 -11
-17 -25 -27 -14 -10 -25 -25 -25 -33 0 -17 -24 -43 -39 -43 -6 0 -11 -7 -11
-15 0 -8 -4 -15 -10 -15 -5 0 -10 -7 -10 -15 0 -9 -15 -30 -34 -48 -18 -18
-36 -43 -40 -55 -4 -12 -12 -22 -17 -22 -5 0 -9 -7 -9 -15 0 -8 -4 -15 -10
-15 -5 0 -10 -9 -10 -20 0 -11 -7 -23 -15 -26 -8 -4 -15 -15 -15 -25 0 -10 -4
-19 -10 -19 -5 0 -10 -7 -10 -15 0 -8 -4 -15 -10 -15 -5 0 -12 -11 -16 -25 -3
-14 -10 -25 -15 -25 -5 0 -9 -11 -9 -25 0 -14 -4 -25 -10 -25 -5 0 -12 -11
-16 -25 -3 -14 -10 -25 -15 -25 -5 0 -9 -11 -9 -25 0 -14 -4 -25 -10 -25 -5 0
-10 -11 -10 -24 0 -13 -7 -29 -15 -36 -8 -7 -15 -21 -15 -31 0 -10 -4 -21 -10
-24 -5 -3 -10 -22 -10 -41 0 -24 -5 -34 -15 -34 -10 0 -15 -11 -15 -35 0 -19
-4 -35 -10 -35 -5 0 -10 -17 -10 -37 0 -21 -7 -47 -15 -57 -8 -11 -15 -32 -15
-46 0 -34 -22 -80 -37 -80 -7 0 -13 5 -13 11 0 6 -16 26 -35 45 -19 18 -35 38
-35 43 0 15 -28 21 -92 21 -74 0 -97 -21 -98 -88 0 -25 -6 -50 -15 -58 -10
-11 -15 -36 -15 -79 0 -35 -4 -67 -10 -70 -6 -3 -10 -51 -10 -110 0 -60 -4
-105 -10 -107 -14 -4 -14 -438 0 -452 5 -5 10 -45 10 -88 0 -45 4 -78 10 -78
6 0 10 -20 10 -45 0 -31 5 -47 15 -51 10 -4 15 -20 15 -49 0 -24 5 -47 10 -50
6 -3 10 -20 10 -36 0 -17 6 -32 15 -35 9 -4 15 -19 15 -40 0 -19 5 -34 10 -34
6 0 10 -11 10 -25 0 -14 7 -28 15 -31 8 -4 15 -15 15 -25 0 -10 5 -19 10 -19
6 0 10 -8 10 -17 0 -25 31 -103 41 -103 5 0 9 -9 9 -20 0 -11 5 -20 10 -20 6
0 10 -7 10 -15 0 -9 7 -18 15 -21 8 -4 15 -14 15 -24 0 -9 10 -28 23 -42 12
-14 23 -31 25 -37 1 -7 11 -22 22 -33 11 -12 22 -30 26 -40 3 -10 10 -18 15
-18 5 0 9 -5 9 -11 0 -6 6 -17 13 -24 27 -31 37 -44 37 -50 0 -10 28 -35 39
-35 6 0 11 -5 11 -11 0 -6 16 -26 35 -45 19 -18 35 -37 35 -41 0 -8 109 -110
134 -125 8 -6 8 -13 -1 -28 -7 -11 -13 -27 -13 -35 0 -8 -4 -15 -10 -15 -5 0
-10 -5 -10 -11 0 -6 -6 -17 -13 -24 -30 -35 -37 -45 -37 -58 0 -8 -11 -23 -25
-33 -14 -10 -25 -23 -25 -28 0 -5 -11 -19 -25 -32 -21 -20 -25 -32 -25 -81 1
-55 15 -93 36 -93 5 0 18 -11 28 -25 10 -14 27 -25 37 -25 11 0 19 -4 19 -10
0 -16 117 -12 132 5 32 36 38 45 38 64 0 11 4 21 10 23 5 2 10 18 12 36 1 18
8 32 15 32 7 0 13 11 13 25 0 14 5 25 10 25 6 0 10 11 10 25 0 14 4 25 10 25
5 0 13 15 18 33 10 40 50 49 80 19 13 -13 28 -18 45 -15 13 3 28 0 31 -6 4 -6
30 -11 57 -11 32 0 56 -6 65 -15 16 -16 52 -18 294 -15 78 0 134 6 150 14 14
6 52 13 85 15 33 1 62 6 65 10 3 4 23 8 45 10 22 1 45 8 50 15 6 7 30 13 55
14 24 1 49 7 54 12 6 6 22 10 36 10 14 0 35 7 46 15 10 8 31 15 47 15 15 0 27
5 27 10 0 6 11 10 24 10 14 0 28 5 31 10 3 6 15 10 25 10 10 0 25 7 34 15 8 8
24 15 35 15 11 0 23 4 26 10 3 5 15 10 26 10 11 0 22 7 25 15 4 8 14 15 24 15
11 0 22 5 25 10 3 6 15 10 25 10 10 0 25 7 34 15 8 8 19 15 25 15 14 0 155 73
159 83 2 4 12 7 22 7 10 0 20 7 24 15 3 8 15 15 26 15 11 0 20 4 20 9 0 5 11
12 25 15 14 4 25 11 25 16 0 6 7 10 15 10 8 0 15 5 15 10 0 6 6 10 14 10 7 0
25 11 40 25 15 14 40 32 57 40 16 9 29 20 29 25 0 6 7 10 15 10 8 0 15 3 15 8
0 4 17 18 37 32 57 39 198 181 213 217 8 17 18 29 23 26 4 -3 11 4 14 16 3 12
9 21 14 21 5 0 9 9 9 20 0 11 7 20 15 20 8 0 15 7 15 15 0 8 5 15 10 15 6 0
10 8 10 19 0 10 7 24 15 31 8 7 15 19 15 26 0 8 5 14 10 14 6 0 10 7 10 15 0
8 5 15 10 15 6 0 10 16 10 35 0 24 5 35 15 35 9 0 15 9 15 25 0 14 5 25 10 25
6 0 10 11 10 24 0 14 7 31 15 40 8 8 15 26 15 40 0 14 5 28 10 31 6 3 10 18
10 33 0 15 7 36 15 46 8 11 15 32 15 47 0 15 5 29 11 31 7 2 11 24 11 51 -1
26 3 47 8 47 6 0 10 22 10 49 0 34 4 51 15 55 11 4 15 21 15 61 0 30 5 55 10
55 6 0 10 24 10 53 -1 51 -16 87 -39 87 -6 0 -11 5 -11 10 0 6 -20 10 -44 10
-25 0 -48 -4 -51 -10 -3 -5 -13 -10 -21 -10 -8 0 -27 -11 -42 -25 -15 -14 -32
-25 -39 -25 -7 0 -13 -4 -13 -10 0 -5 -7 -10 -16 -10 -14 0 -14 1 0 16 9 8 16
23 16 33 0 9 4 21 10 27 5 5 10 24 12 42 1 17 6 32 10 32 4 0 8 11 8 25 0 16
6 25 15 25 10 0 15 11 15 35 0 19 5 35 10 35 6 0 10 14 10 31 0 18 7 37 15 43
9 6 16 29 17 54 1 23 5 42 10 42 4 0 8 15 8 34 0 19 5 36 12 38 6 2 13 30 16
61 2 32 8 60 13 63 5 3 9 36 9 73 0 37 5 72 11 78 6 6 10 61 10 142 -1 105 2
135 14 147 19 20 19 48 0 68 -8 8 -15 20 -15 26 0 27 -30 40 -90 40 -61 0 -63
-1 -106 -46 -41 -43 -44 -44 -44 -21 0 14 5 27 11 29 6 2 13 25 16 51 3 26 10
50 14 53 5 3 9 29 9 59 0 29 4 55 9 57 6 2 11 29 12 62 1 32 8 64 15 71 9 8
14 47 15 114 1 56 5 104 10 107 13 8 12 554 -1 554 -6 0 -10 36 -10 88 0 117
-11 132 -101 132 -52 0 -67 -4 -79 -19z m14 -261 c9 -71 6 -373 -5 -441 -5
-32 -14 -101 -19 -155 -18 -170 -36 -277 -61 -360 -5 -17 -9 -40 -9 -52 0 -12
-4 -30 -9 -40 -5 -9 -17 -46 -26 -82 -10 -36 -21 -74 -25 -85 -4 -11 -15 -38
-23 -60 -27 -69 -29 -94 -11 -125 30 -50 70 -49 182 7 53 26 101 50 106 52 11
5 1 -110 -19 -223 -22 -125 -82 -347 -115 -431 -4 -11 -20 -51 -35 -90 -25
-63 -123 -267 -183 -377 -34 -63 -13 -120 48 -133 21 -5 46 4 101 33 93 49
145 79 185 103 33 20 48 16 35 -10 -5 -9 -16 -47 -26 -86 -9 -38 -20 -79 -25
-90 -4 -11 -15 -42 -25 -70 -9 -27 -21 -61 -27 -75 -6 -14 -16 -38 -23 -55
-32 -75 -109 -226 -121 -236 -8 -6 -14 -17 -14 -24 0 -8 -3 -15 -7 -17 -5 -1
-27 -29 -51 -61 -24 -32 -62 -77 -86 -100 -45 -43 -50 -48 -126 -107 -25 -19
-54 -43 -64 -52 -11 -10 -23 -18 -27 -18 -4 0 -14 -6 -21 -12 -8 -7 -25 -19
-38 -27 -14 -8 -87 -52 -163 -98 -75 -46 -140 -83 -143 -83 -3 0 -40 -16 -82
-36 -105 -50 -182 -85 -212 -96 -14 -6 -38 -16 -53 -24 -16 -8 -37 -14 -47
-14 -10 0 -22 -4 -25 -10 -3 -5 -16 -10 -29 -10 -12 0 -31 -7 -42 -15 -10 -8
-30 -15 -45 -15 -14 0 -29 -4 -35 -9 -5 -5 -31 -12 -59 -15 -27 -3 -72 -10
-100 -15 -75 -14 -342 -10 -395 6 -25 7 -59 13 -77 13 -17 0 -35 5 -38 10 -3
6 -15 10 -25 10 -10 0 -33 8 -52 17 -61 31 -68 33 -88 33 -26 0 -25 12 5 60
14 22 25 43 25 47 0 12 54 118 63 121 4 2 7 11 7 20 0 9 23 62 51 118 l51 101
56 18 c32 10 71 22 87 26 101 29 318 104 347 120 10 5 23 9 29 9 6 0 25 6 42
14 18 7 52 19 77 26 25 6 59 18 75 25 17 8 57 23 90 34 71 23 222 77 250 90
32 14 87 37 125 51 19 7 40 17 45 21 6 3 24 10 40 13 17 4 52 20 80 36 40 23
46 30 32 36 -17 6 -40 1 -133 -27 -17 -5 -42 -9 -55 -9 -14 0 -29 -4 -35 -10
-5 -5 -27 -12 -49 -16 -22 -3 -44 -9 -50 -14 -5 -4 -23 -10 -40 -13 -16 -3
-54 -11 -83 -16 -30 -6 -59 -14 -65 -19 -7 -5 -28 -12 -47 -15 -62 -10 -114
-23 -137 -35 -12 -7 -37 -12 -57 -12 -19 0 -37 -4 -40 -9 -3 -5 -23 -11 -43
-14 -59 -9 -151 -32 -159 -40 -4 -4 -27 -7 -51 -7 -25 0 -52 -4 -61 -9 -9 -4
-41 -11 -69 -15 -49 -6 -53 -5 -53 14 0 11 5 20 10 20 6 0 10 9 10 20 0 11 5
20 10 20 6 0 10 6 10 14 0 13 48 109 97 196 11 19 31 55 45 80 14 25 41 72 60
105 19 33 37 67 41 75 4 8 15 29 25 45 10 17 30 51 45 77 14 25 36 63 49 85
13 21 29 49 36 63 23 45 47 66 80 73 17 4 51 16 74 27 23 11 48 20 56 20 14 0
93 24 137 41 11 4 56 19 100 34 44 14 89 30 100 34 11 5 43 16 70 26 28 9 59
20 70 25 11 5 43 16 70 26 28 9 54 21 60 26 5 4 19 8 31 8 13 0 26 5 29 10 3
6 13 10 22 10 8 0 31 7 51 16 21 9 46 20 57 24 79 31 113 46 134 62 20 15 21
19 7 24 -9 3 -29 2 -44 -4 -15 -5 -54 -15 -87 -22 -33 -7 -79 -19 -103 -26
-23 -8 -51 -14 -62 -14 -10 0 -22 -4 -25 -10 -3 -5 -24 -10 -45 -10 -21 0 -41
-4 -44 -9 -3 -5 -26 -12 -51 -15 -24 -4 -47 -11 -50 -17 -4 -5 -21 -9 -40 -9
-19 0 -37 -4 -40 -10 -3 -5 -23 -10 -43 -10 -20 -1 -48 -7 -62 -15 -14 -8 -43
-14 -65 -15 -23 0 -45 -4 -50 -9 -6 -5 -28 -11 -50 -14 -22 -3 -57 -9 -78 -15
-42 -11 -57 -1 -35 26 19 24 38 60 38 72 0 5 16 34 35 64 19 30 35 57 35 60 0
3 26 47 58 98 32 51 61 100 65 108 8 18 30 53 37 60 3 3 10 14 16 25 30 56 50
91 54 95 10 10 31 45 36 63 4 9 10 17 15 17 5 0 9 5 9 10 0 6 26 52 58 103 32
51 61 100 65 110 3 9 15 17 25 17 10 0 22 3 25 6 8 8 168 63 184 64 7 0 36 11
65 23 29 13 71 30 93 37 22 7 54 18 70 25 17 7 46 18 65 25 19 7 50 22 69 33
30 18 32 21 15 28 -10 3 -23 3 -29 -1 -5 -4 -26 -10 -45 -13 -19 -4 -60 -14
-90 -23 -186 -53 -339 -88 -348 -80 -6 7 15 52 48 101 11 17 23 37 27 45 4 8
37 63 75 122 37 59 68 112 68 117 0 6 5 11 10 11 6 0 10 5 10 11 0 6 18 38 40
71 22 33 40 63 40 66 0 3 11 20 25 38 14 18 25 35 25 38 0 3 32 55 70 116 39
61 70 117 70 125 0 7 6 15 13 18 6 2 8 8 4 13 -8 8 -19 -2 -76 -71 -45 -55
-411 -572 -411 -581 0 -2 -5 -10 -10 -17 -6 -7 -33 -45 -61 -85 -47 -69 -69
-82 -69 -43 0 9 -4 21 -8 26 -5 6 -32 84 -61 175 -29 91 -57 174 -61 185 -4
11 -16 47 -25 80 -10 33 -21 68 -26 77 -5 10 -9 28 -9 40 0 13 -4 30 -10 38
-24 38 -25 -51 -1 -180 5 -30 13 -77 16 -105 4 -27 13 -69 21 -93 8 -23 14
-56 14 -72 0 -17 5 -30 10 -30 6 0 10 -20 10 -44 0 -25 5 -48 10 -51 6 -3 10
-18 10 -33 0 -15 7 -40 15 -55 20 -38 22 -130 4 -151 -8 -9 -19 -22 -24 -29
-6 -7 -21 -33 -34 -60 -13 -26 -30 -52 -38 -58 -7 -6 -13 -16 -13 -22 0 -5
-11 -25 -25 -43 -14 -18 -25 -37 -25 -43 0 -6 -4 -11 -10 -11 -5 0 -10 -5 -10
-11 0 -6 -10 -25 -23 -42 -12 -18 -27 -39 -32 -48 -6 -10 -45 -71 -87 -137
-43 -67 -78 -126 -78 -132 0 -5 -3 -10 -8 -10 -4 0 -16 -17 -27 -37 -11 -21
-22 -40 -25 -43 -3 -3 -21 -29 -39 -57 -18 -29 -38 -53 -45 -53 -11 0 -34 45
-91 175 -15 33 -38 85 -52 115 -14 30 -30 66 -35 80 -6 14 -17 39 -24 55 -7
17 -19 46 -27 65 -8 19 -24 55 -35 80 -11 25 -25 61 -32 80 -7 19 -20 51 -28
70 -8 19 -19 46 -24 60 -16 40 -40 94 -49 112 -5 10 -9 23 -9 30 0 6 -10 32
-22 57 -20 42 -22 43 -31 23 -7 -16 -5 -40 7 -85 10 -34 22 -78 27 -97 16 -62
40 -144 50 -168 5 -13 9 -34 9 -47 0 -13 4 -26 9 -29 5 -3 11 -20 14 -38 7
-47 28 -117 58 -193 4 -11 10 -31 12 -45 3 -14 11 -41 17 -60 7 -19 16 -44 20
-55 4 -11 13 -36 20 -55 7 -19 15 -47 17 -63 3 -15 9 -30 14 -33 5 -3 9 -16 9
-29 0 -13 5 -27 10 -30 6 -3 10 -14 10 -23 0 -9 7 -30 15 -46 8 -15 15 -37 15
-47 0 -10 4 -20 10 -24 10 -6 -56 -137 -131 -256 -27 -43 -49 -83 -49 -89 0
-5 -4 -10 -9 -10 -5 0 -11 -8 -14 -17 -6 -20 -49 -95 -58 -103 -3 -3 -28 -43
-55 -90 -27 -47 -54 -94 -61 -105 -7 -11 -15 -27 -19 -35 -5 -8 -22 -37 -39
-65 -17 -27 -39 -66 -49 -85 -56 -112 -59 -113 -91 -44 -27 59 -50 111 -65
149 -5 11 -16 38 -25 60 -17 41 -20 48 -50 125 -38 98 -60 151 -76 182 -5 10
-9 25 -9 33 0 8 -4 23 -10 33 -11 20 -32 72 -50 122 -7 19 -19 49 -26 65 -7
17 -20 51 -28 77 -8 25 -25 61 -36 80 l-22 33 7 -64 c3 -36 13 -83 21 -105 7
-23 14 -51 14 -64 0 -12 4 -30 9 -40 10 -21 31 -95 38 -140 3 -18 9 -35 14
-38 5 -3 9 -13 9 -21 0 -9 11 -53 24 -97 14 -45 37 -121 52 -171 29 -98 51
-169 109 -347 35 -106 37 -119 23 -135 -8 -10 -32 -53 -54 -96 -21 -43 -49
-90 -61 -103 -13 -14 -23 -29 -23 -35 0 -5 -10 -26 -23 -47 -13 -20 -32 -54
-43 -75 -36 -72 -39 -77 -46 -77 -5 0 -8 -9 -8 -21 0 -19 -1 -19 -16 -5 -8 9
-25 21 -36 27 -45 24 -248 226 -248 246 0 5 -11 20 -25 35 -14 15 -25 32 -25
37 0 6 -9 21 -20 34 -23 26 -67 102 -77 130 -3 9 -9 17 -14 17 -5 0 -9 6 -9
12 0 7 -12 38 -26 68 -15 30 -31 66 -36 80 -6 14 -16 38 -24 53 -8 16 -14 39
-14 52 0 13 -5 27 -10 30 -6 3 -10 21 -10 39 0 17 -4 36 -9 42 -5 5 -12 34
-16 64 -4 30 -10 62 -15 70 -30 59 -29 619 1 778 12 60 23 59 57 -6 11 -20 30
-57 43 -82 32 -59 56 -79 100 -80 63 0 77 29 95 210 3 36 12 88 19 115 7 28
18 77 25 110 7 33 16 69 20 80 5 11 16 45 26 75 55 175 158 389 258 535 22 33
46 68 51 76 39 62 117 152 229 264 121 120 245 225 267 225 5 0 9 -35 9 -77 1
-91 14 -160 37 -185 21 -24 78 -23 100 0 10 10 32 36 48 57 33 43 144 156 188
192 93 77 253 165 387 213 19 6 44 16 55 20 68 27 153 43 307 59 47 5 91 12
96 15 5 3 59 11 118 17 201 20 242 27 339 59 72 23 79 26 130 52 28 14 55 26
61 27 6 0 14 -22 18 -49z"/>
</g>
</svg>
